<mxfile host="app.diagrams.net" modified="2021-12-06T13:03:44.703Z" agent="5.0 (Macintosh; Intel Mac OS X 10_15_7) AppleWebKit/537.36 (KHTML, like Gecko) Chrome/96.0.4664.55 Safari/537.36" etag="mtgj4kzyzYBSQyImW2ng" version="15.8.8" type="github">
  <diagram id="C5RBs43oDa-KdzZeNtuy" name="Page-1">
    <mxGraphModel dx="1298" dy="2035" grid="1" gridSize="10" guides="1" tooltips="1" connect="1" arrows="1" fold="1" page="1" pageScale="1" pageWidth="827" pageHeight="1169" math="0" shadow="0">
      <root>
        <mxCell id="WIyWlLk6GJQsqaUBKTNV-0" />
        <mxCell id="WIyWlLk6GJQsqaUBKTNV-1" parent="WIyWlLk6GJQsqaUBKTNV-0" />
        <mxCell id="7Vs7owEC3NM674qJ7YM_-0" value="" style="whiteSpace=wrap;html=1;" parent="WIyWlLk6GJQsqaUBKTNV-1" vertex="1">
          <mxGeometry x="320" y="275" width="380" height="170" as="geometry" />
        </mxCell>
        <mxCell id="CWLPq41qAK1vj7aHCXtB-68" style="edgeStyle=orthogonalEdgeStyle;rounded=0;orthogonalLoop=1;jettySize=auto;html=1;entryX=0;entryY=0.5;entryDx=0;entryDy=0;" parent="WIyWlLk6GJQsqaUBKTNV-1" source="CWLPq41qAK1vj7aHCXtB-1" target="CWLPq41qAK1vj7aHCXtB-67" edge="1">
          <mxGeometry relative="1" as="geometry" />
        </mxCell>
        <mxCell id="CWLPq41qAK1vj7aHCXtB-69" style="edgeStyle=orthogonalEdgeStyle;rounded=0;orthogonalLoop=1;jettySize=auto;html=1;entryX=0;entryY=0.5;entryDx=0;entryDy=0;" parent="WIyWlLk6GJQsqaUBKTNV-1" source="CWLPq41qAK1vj7aHCXtB-1" target="CWLPq41qAK1vj7aHCXtB-66" edge="1">
          <mxGeometry relative="1" as="geometry" />
        </mxCell>
        <mxCell id="CWLPq41qAK1vj7aHCXtB-1" value="账户" style="whiteSpace=wrap;html=1;align=center;dashed=1;" parent="WIyWlLk6GJQsqaUBKTNV-1" vertex="1">
          <mxGeometry x="350" y="340" width="100" height="40" as="geometry" />
        </mxCell>
        <mxCell id="CWLPq41qAK1vj7aHCXtB-5" value="科目" style="whiteSpace=wrap;html=1;align=center;" parent="WIyWlLk6GJQsqaUBKTNV-1" vertex="1">
          <mxGeometry x="120" y="340" width="100" height="40" as="geometry" />
        </mxCell>
        <mxCell id="CWLPq41qAK1vj7aHCXtB-11" value="科目要素" style="whiteSpace=wrap;html=1;align=center;" parent="WIyWlLk6GJQsqaUBKTNV-1" vertex="1">
          <mxGeometry x="120" y="220" width="100" height="40" as="geometry" />
        </mxCell>
        <mxCell id="CWLPq41qAK1vj7aHCXtB-30" value="" style="endArrow=none;html=1;rounded=0;exitX=1;exitY=0.5;exitDx=0;exitDy=0;entryX=0;entryY=0.5;entryDx=0;entryDy=0;" parent="WIyWlLk6GJQsqaUBKTNV-1" source="CWLPq41qAK1vj7aHCXtB-5" target="7Vs7owEC3NM674qJ7YM_-0" edge="1">
          <mxGeometry relative="1" as="geometry">
            <mxPoint x="320" y="630" as="sourcePoint" />
            <mxPoint x="310" y="360" as="targetPoint" />
          </mxGeometry>
        </mxCell>
        <mxCell id="CWLPq41qAK1vj7aHCXtB-31" value="1" style="resizable=0;html=1;align=left;verticalAlign=bottom;" parent="CWLPq41qAK1vj7aHCXtB-30" connectable="0" vertex="1">
          <mxGeometry x="-1" relative="1" as="geometry">
            <mxPoint x="10" as="offset" />
          </mxGeometry>
        </mxCell>
        <mxCell id="CWLPq41qAK1vj7aHCXtB-32" value="*" style="resizable=0;html=1;align=right;verticalAlign=bottom;" parent="CWLPq41qAK1vj7aHCXtB-30" connectable="0" vertex="1">
          <mxGeometry x="1" relative="1" as="geometry">
            <mxPoint x="-10" as="offset" />
          </mxGeometry>
        </mxCell>
        <mxCell id="CWLPq41qAK1vj7aHCXtB-45" value="" style="endArrow=none;html=1;rounded=0;exitX=0.5;exitY=1;exitDx=0;exitDy=0;" parent="WIyWlLk6GJQsqaUBKTNV-1" source="CWLPq41qAK1vj7aHCXtB-11" target="CWLPq41qAK1vj7aHCXtB-5" edge="1">
          <mxGeometry relative="1" as="geometry">
            <mxPoint x="-90" y="480" as="sourcePoint" />
            <mxPoint x="40" y="480" as="targetPoint" />
          </mxGeometry>
        </mxCell>
        <mxCell id="CWLPq41qAK1vj7aHCXtB-46" value="1" style="resizable=0;html=1;align=left;verticalAlign=bottom;" parent="CWLPq41qAK1vj7aHCXtB-45" connectable="0" vertex="1">
          <mxGeometry x="-1" relative="1" as="geometry">
            <mxPoint x="10" y="20" as="offset" />
          </mxGeometry>
        </mxCell>
        <mxCell id="CWLPq41qAK1vj7aHCXtB-47" value="*" style="resizable=0;html=1;align=right;verticalAlign=bottom;" parent="CWLPq41qAK1vj7aHCXtB-45" connectable="0" vertex="1">
          <mxGeometry x="1" relative="1" as="geometry">
            <mxPoint x="-10" as="offset" />
          </mxGeometry>
        </mxCell>
        <mxCell id="CWLPq41qAK1vj7aHCXtB-49" value="内部账明细" style="whiteSpace=wrap;html=1;align=center;" parent="WIyWlLk6GJQsqaUBKTNV-1" vertex="1">
          <mxGeometry x="750" y="290" width="100" height="40" as="geometry" />
        </mxCell>
        <mxCell id="CWLPq41qAK1vj7aHCXtB-50" value="" style="endArrow=none;html=1;rounded=0;" parent="WIyWlLk6GJQsqaUBKTNV-1" source="CWLPq41qAK1vj7aHCXtB-67" target="CWLPq41qAK1vj7aHCXtB-49" edge="1">
          <mxGeometry relative="1" as="geometry">
            <mxPoint x="520" y="420" as="sourcePoint" />
            <mxPoint x="550" y="450" as="targetPoint" />
          </mxGeometry>
        </mxCell>
        <mxCell id="CWLPq41qAK1vj7aHCXtB-51" value="1" style="resizable=0;html=1;align=left;verticalAlign=bottom;" parent="CWLPq41qAK1vj7aHCXtB-50" connectable="0" vertex="1">
          <mxGeometry x="-1" relative="1" as="geometry">
            <mxPoint x="10" as="offset" />
          </mxGeometry>
        </mxCell>
        <mxCell id="CWLPq41qAK1vj7aHCXtB-52" value="*" style="resizable=0;html=1;align=right;verticalAlign=bottom;" parent="CWLPq41qAK1vj7aHCXtB-50" connectable="0" vertex="1">
          <mxGeometry x="1" relative="1" as="geometry">
            <mxPoint x="-10" as="offset" />
          </mxGeometry>
        </mxCell>
        <mxCell id="CWLPq41qAK1vj7aHCXtB-53" value="分录" style="whiteSpace=wrap;html=1;align=center;" parent="WIyWlLk6GJQsqaUBKTNV-1" vertex="1">
          <mxGeometry x="460" y="190" width="100" height="40" as="geometry" />
        </mxCell>
        <mxCell id="CWLPq41qAK1vj7aHCXtB-54" value="" style="endArrow=none;html=1;rounded=0;entryX=0.5;entryY=0;entryDx=0;entryDy=0;" parent="WIyWlLk6GJQsqaUBKTNV-1" source="CWLPq41qAK1vj7aHCXtB-53" target="7Vs7owEC3NM674qJ7YM_-0" edge="1">
          <mxGeometry relative="1" as="geometry">
            <mxPoint x="180" y="270" as="sourcePoint" />
            <mxPoint x="180" y="350" as="targetPoint" />
          </mxGeometry>
        </mxCell>
        <mxCell id="CWLPq41qAK1vj7aHCXtB-55" value="*" style="resizable=0;html=1;align=left;verticalAlign=bottom;" parent="CWLPq41qAK1vj7aHCXtB-54" connectable="0" vertex="1">
          <mxGeometry x="-1" relative="1" as="geometry">
            <mxPoint x="10" y="20" as="offset" />
          </mxGeometry>
        </mxCell>
        <mxCell id="CWLPq41qAK1vj7aHCXtB-56" value="1" style="resizable=0;html=1;align=right;verticalAlign=bottom;" parent="CWLPq41qAK1vj7aHCXtB-54" connectable="0" vertex="1">
          <mxGeometry x="1" relative="1" as="geometry">
            <mxPoint x="-10" as="offset" />
          </mxGeometry>
        </mxCell>
        <mxCell id="CWLPq41qAK1vj7aHCXtB-57" value="每日汇总金额" style="whiteSpace=wrap;html=1;align=center;" parent="WIyWlLk6GJQsqaUBKTNV-1" vertex="1">
          <mxGeometry x="120" y="480" width="100" height="40" as="geometry" />
        </mxCell>
        <mxCell id="CWLPq41qAK1vj7aHCXtB-58" value="" style="endArrow=none;html=1;rounded=0;exitX=0.5;exitY=1;exitDx=0;exitDy=0;" parent="WIyWlLk6GJQsqaUBKTNV-1" source="CWLPq41qAK1vj7aHCXtB-5" target="CWLPq41qAK1vj7aHCXtB-57" edge="1">
          <mxGeometry relative="1" as="geometry">
            <mxPoint x="100" y="410" as="sourcePoint" />
            <mxPoint x="180" y="350" as="targetPoint" />
          </mxGeometry>
        </mxCell>
        <mxCell id="CWLPq41qAK1vj7aHCXtB-59" value="1" style="resizable=0;html=1;align=left;verticalAlign=bottom;" parent="CWLPq41qAK1vj7aHCXtB-58" connectable="0" vertex="1">
          <mxGeometry x="-1" relative="1" as="geometry">
            <mxPoint x="10" y="20" as="offset" />
          </mxGeometry>
        </mxCell>
        <mxCell id="CWLPq41qAK1vj7aHCXtB-60" value="*" style="resizable=0;html=1;align=right;verticalAlign=bottom;" parent="CWLPq41qAK1vj7aHCXtB-58" connectable="0" vertex="1">
          <mxGeometry x="1" relative="1" as="geometry">
            <mxPoint x="-10" as="offset" />
          </mxGeometry>
        </mxCell>
        <mxCell id="CWLPq41qAK1vj7aHCXtB-61" value="子户" style="whiteSpace=wrap;html=1;align=center;" parent="WIyWlLk6GJQsqaUBKTNV-1" vertex="1">
          <mxGeometry x="540" y="480" width="100" height="40" as="geometry" />
        </mxCell>
        <mxCell id="CWLPq41qAK1vj7aHCXtB-62" value="" style="endArrow=none;html=1;rounded=0;" parent="WIyWlLk6GJQsqaUBKTNV-1" source="CWLPq41qAK1vj7aHCXtB-66" target="CWLPq41qAK1vj7aHCXtB-61" edge="1">
          <mxGeometry relative="1" as="geometry">
            <mxPoint x="620" y="490" as="sourcePoint" />
            <mxPoint x="578.3333333333333" y="270" as="targetPoint" />
          </mxGeometry>
        </mxCell>
        <mxCell id="CWLPq41qAK1vj7aHCXtB-63" value="1" style="resizable=0;html=1;align=left;verticalAlign=bottom;" parent="CWLPq41qAK1vj7aHCXtB-62" connectable="0" vertex="1">
          <mxGeometry x="-1" relative="1" as="geometry">
            <mxPoint x="10" y="20" as="offset" />
          </mxGeometry>
        </mxCell>
        <mxCell id="CWLPq41qAK1vj7aHCXtB-64" value="*" style="resizable=0;html=1;align=right;verticalAlign=bottom;" parent="CWLPq41qAK1vj7aHCXtB-62" connectable="0" vertex="1">
          <mxGeometry x="1" relative="1" as="geometry">
            <mxPoint x="-10" as="offset" />
          </mxGeometry>
        </mxCell>
        <mxCell id="CWLPq41qAK1vj7aHCXtB-66" value="客户账户" style="whiteSpace=wrap;html=1;align=center;" parent="WIyWlLk6GJQsqaUBKTNV-1" vertex="1">
          <mxGeometry x="540" y="390" width="100" height="40" as="geometry" />
        </mxCell>
        <mxCell id="CWLPq41qAK1vj7aHCXtB-67" value="内部账户" style="whiteSpace=wrap;html=1;align=center;" parent="WIyWlLk6GJQsqaUBKTNV-1" vertex="1">
          <mxGeometry x="540" y="290" width="100" height="40" as="geometry" />
        </mxCell>
        <mxCell id="CWLPq41qAK1vj7aHCXtB-71" value="存管行账户" style="whiteSpace=wrap;html=1;align=center;fillColor=#f5f5f5;fontColor=#333333;strokeColor=#666666;" parent="WIyWlLk6GJQsqaUBKTNV-1" vertex="1">
          <mxGeometry x="540" y="585" width="100" height="40" as="geometry" />
        </mxCell>
        <mxCell id="CWLPq41qAK1vj7aHCXtB-72" value="" style="endArrow=none;html=1;rounded=0;" parent="WIyWlLk6GJQsqaUBKTNV-1" target="CWLPq41qAK1vj7aHCXtB-71" edge="1">
          <mxGeometry relative="1" as="geometry">
            <mxPoint x="591" y="520" as="sourcePoint" />
            <mxPoint x="600" y="490" as="targetPoint" />
          </mxGeometry>
        </mxCell>
        <mxCell id="CWLPq41qAK1vj7aHCXtB-73" value="0" style="resizable=0;html=1;align=left;verticalAlign=bottom;" parent="CWLPq41qAK1vj7aHCXtB-72" connectable="0" vertex="1">
          <mxGeometry x="-1" relative="1" as="geometry">
            <mxPoint x="10" y="20" as="offset" />
          </mxGeometry>
        </mxCell>
        <mxCell id="CWLPq41qAK1vj7aHCXtB-74" value="1" style="resizable=0;html=1;align=right;verticalAlign=bottom;" parent="CWLPq41qAK1vj7aHCXtB-72" connectable="0" vertex="1">
          <mxGeometry x="1" relative="1" as="geometry">
            <mxPoint x="-10" as="offset" />
          </mxGeometry>
        </mxCell>
        <mxCell id="CWLPq41qAK1vj7aHCXtB-75" value="余额冻结记录" style="whiteSpace=wrap;html=1;align=center;" parent="WIyWlLk6GJQsqaUBKTNV-1" vertex="1">
          <mxGeometry x="750" y="480" width="100" height="40" as="geometry" />
        </mxCell>
        <mxCell id="CWLPq41qAK1vj7aHCXtB-76" value="" style="endArrow=none;html=1;rounded=0;" parent="WIyWlLk6GJQsqaUBKTNV-1" source="CWLPq41qAK1vj7aHCXtB-61" target="CWLPq41qAK1vj7aHCXtB-75" edge="1">
          <mxGeometry relative="1" as="geometry">
            <mxPoint x="600" y="440" as="sourcePoint" />
            <mxPoint x="600" y="490" as="targetPoint" />
          </mxGeometry>
        </mxCell>
        <mxCell id="CWLPq41qAK1vj7aHCXtB-77" value="1" style="resizable=0;html=1;align=left;verticalAlign=bottom;" parent="CWLPq41qAK1vj7aHCXtB-76" connectable="0" vertex="1">
          <mxGeometry x="-1" relative="1" as="geometry">
            <mxPoint x="10" y="20" as="offset" />
          </mxGeometry>
        </mxCell>
        <mxCell id="CWLPq41qAK1vj7aHCXtB-78" value="*" style="resizable=0;html=1;align=right;verticalAlign=bottom;" parent="CWLPq41qAK1vj7aHCXtB-76" connectable="0" vertex="1">
          <mxGeometry x="1" relative="1" as="geometry">
            <mxPoint x="-10" as="offset" />
          </mxGeometry>
        </mxCell>
        <mxCell id="CWLPq41qAK1vj7aHCXtB-83" value="客户账明细" style="whiteSpace=wrap;html=1;align=center;" parent="WIyWlLk6GJQsqaUBKTNV-1" vertex="1">
          <mxGeometry x="750" y="390" width="100" height="40" as="geometry" />
        </mxCell>
        <mxCell id="CWLPq41qAK1vj7aHCXtB-84" value="" style="endArrow=none;html=1;rounded=0;" parent="WIyWlLk6GJQsqaUBKTNV-1" source="CWLPq41qAK1vj7aHCXtB-66" target="CWLPq41qAK1vj7aHCXtB-83" edge="1">
          <mxGeometry relative="1" as="geometry">
            <mxPoint x="640" y="409.5" as="sourcePoint" />
            <mxPoint x="760" y="409.5" as="targetPoint" />
          </mxGeometry>
        </mxCell>
        <mxCell id="CWLPq41qAK1vj7aHCXtB-85" value="1" style="resizable=0;html=1;align=left;verticalAlign=bottom;" parent="CWLPq41qAK1vj7aHCXtB-84" connectable="0" vertex="1">
          <mxGeometry x="-1" relative="1" as="geometry">
            <mxPoint x="10" as="offset" />
          </mxGeometry>
        </mxCell>
        <mxCell id="CWLPq41qAK1vj7aHCXtB-86" value="*" style="resizable=0;html=1;align=right;verticalAlign=bottom;" parent="CWLPq41qAK1vj7aHCXtB-84" connectable="0" vertex="1">
          <mxGeometry x="1" relative="1" as="geometry">
            <mxPoint x="-10" as="offset" />
          </mxGeometry>
        </mxCell>
        <mxCell id="7Vs7owEC3NM674qJ7YM_-15" style="edgeStyle=orthogonalEdgeStyle;rounded=0;orthogonalLoop=1;jettySize=auto;html=1;entryX=0;entryY=0.5;entryDx=0;entryDy=0;" parent="WIyWlLk6GJQsqaUBKTNV-1" source="7Vs7owEC3NM674qJ7YM_-14" target="CWLPq41qAK1vj7aHCXtB-61" edge="1">
          <mxGeometry relative="1" as="geometry" />
        </mxCell>
        <mxCell id="7Vs7owEC3NM674qJ7YM_-21" value="" style="edgeStyle=orthogonalEdgeStyle;rounded=0;orthogonalLoop=1;jettySize=auto;html=1;" parent="WIyWlLk6GJQsqaUBKTNV-1" source="7Vs7owEC3NM674qJ7YM_-14" target="CWLPq41qAK1vj7aHCXtB-61" edge="1">
          <mxGeometry relative="1" as="geometry" />
        </mxCell>
        <mxCell id="7Vs7owEC3NM674qJ7YM_-14" value="子户类型" style="whiteSpace=wrap;html=1;align=center;" parent="WIyWlLk6GJQsqaUBKTNV-1" vertex="1">
          <mxGeometry x="380" y="480" width="100" height="40" as="geometry" />
        </mxCell>
        <mxCell id="7Vs7owEC3NM674qJ7YM_-17" value="*" style="resizable=0;html=1;align=right;verticalAlign=bottom;" parent="WIyWlLk6GJQsqaUBKTNV-1" connectable="0" vertex="1">
          <mxGeometry x="530" y="520" as="geometry" />
        </mxCell>
        <mxCell id="7Vs7owEC3NM674qJ7YM_-18" value="1" style="resizable=0;html=1;align=left;verticalAlign=bottom;" parent="WIyWlLk6GJQsqaUBKTNV-1" connectable="0" vertex="1">
          <mxGeometry x="610" y="460" as="geometry">
            <mxPoint x="-126" y="38" as="offset" />
          </mxGeometry>
        </mxCell>
        <mxCell id="7Vs7owEC3NM674qJ7YM_-20" style="edgeStyle=orthogonalEdgeStyle;rounded=0;orthogonalLoop=1;jettySize=auto;html=1;entryX=0;entryY=0.5;entryDx=0;entryDy=0;exitX=0.5;exitY=0;exitDx=0;exitDy=0;" parent="WIyWlLk6GJQsqaUBKTNV-1" source="7Vs7owEC3NM674qJ7YM_-19" target="CWLPq41qAK1vj7aHCXtB-66" edge="1">
          <mxGeometry relative="1" as="geometry" />
        </mxCell>
        <mxCell id="7Vs7owEC3NM674qJ7YM_-19" value="用户" style="whiteSpace=wrap;html=1;align=center;fillColor=#f5f5f5;fontColor=#333333;strokeColor=#666666;" parent="WIyWlLk6GJQsqaUBKTNV-1" vertex="1">
          <mxGeometry x="240" y="585" width="100" height="40" as="geometry" />
        </mxCell>
        <mxCell id="7Vs7owEC3NM674qJ7YM_-22" value="1" style="resizable=0;html=1;align=left;verticalAlign=bottom;" parent="WIyWlLk6GJQsqaUBKTNV-1" connectable="0" vertex="1">
          <mxGeometry x="270" y="585" as="geometry" />
        </mxCell>
        <mxCell id="7Vs7owEC3NM674qJ7YM_-23" value="*" style="resizable=0;html=1;align=right;verticalAlign=bottom;" parent="WIyWlLk6GJQsqaUBKTNV-1" connectable="0" vertex="1">
          <mxGeometry x="530" y="430" as="geometry" />
        </mxCell>
        <mxCell id="7Vs7owEC3NM674qJ7YM_-39" value="" style="edgeStyle=orthogonalEdgeStyle;rounded=0;orthogonalLoop=1;jettySize=auto;html=1;" parent="WIyWlLk6GJQsqaUBKTNV-1" source="7Vs7owEC3NM674qJ7YM_-24" target="7Vs7owEC3NM674qJ7YM_-37" edge="1">
          <mxGeometry relative="1" as="geometry" />
        </mxCell>
        <mxCell id="7Vs7owEC3NM674qJ7YM_-24" value="Account(账户)" style="swimlane;childLayout=stackLayout;horizontal=1;startSize=30;horizontalStack=0;rounded=1;fontSize=14;fontStyle=0;strokeWidth=2;resizeParent=0;resizeLast=1;shadow=0;dashed=0;align=center;" parent="WIyWlLk6GJQsqaUBKTNV-1" vertex="1">
          <mxGeometry x="1930" y="130" width="200" height="130" as="geometry" />
        </mxCell>
        <mxCell id="7Vs7owEC3NM674qJ7YM_-25" value="+accountNo : 账户号&#xa;+accountName : 账户名&#xa;+accountTitle : 科目号&#xa;+curreny : 币种&#xa;+balanceDirection : 余额方向&#xa;-getAccountFamily : 获取账户分类" style="align=left;strokeColor=none;fillColor=none;spacingLeft=4;fontSize=12;verticalAlign=top;resizable=0;rotatable=0;part=1;dashed=1;" parent="7Vs7owEC3NM674qJ7YM_-24" vertex="1">
          <mxGeometry y="30" width="200" height="100" as="geometry" />
        </mxCell>
        <mxCell id="7Vs7owEC3NM674qJ7YM_-37" value="OuterAccount(外部户)" style="swimlane;childLayout=stackLayout;horizontal=1;startSize=30;horizontalStack=0;rounded=1;fontSize=14;fontStyle=0;strokeWidth=2;resizeParent=0;resizeLast=1;shadow=0;dashed=0;align=center;" parent="WIyWlLk6GJQsqaUBKTNV-1" vertex="1">
          <mxGeometry x="2150" y="330" width="225" height="90" as="geometry" />
        </mxCell>
        <mxCell id="7Vs7owEC3NM674qJ7YM_-38" value="+acountType : 账户类型&#xa;+accountAttribute : 账户属性：公/私&#xa;+accountStatus : 账户状态" style="align=left;strokeColor=none;fillColor=none;spacingLeft=4;fontSize=12;verticalAlign=top;resizable=0;rotatable=0;part=1;dashed=1;" parent="7Vs7owEC3NM674qJ7YM_-37" vertex="1">
          <mxGeometry y="30" width="225" height="60" as="geometry" />
        </mxCell>
        <mxCell id="egoAasq25twxmUCqWfy0-3" value="账户状态变更记录" style="whiteSpace=wrap;html=1;align=center;" vertex="1" parent="WIyWlLk6GJQsqaUBKTNV-1">
          <mxGeometry x="620" y="190" width="100" height="40" as="geometry" />
        </mxCell>
        <mxCell id="egoAasq25twxmUCqWfy0-4" value="" style="endArrow=none;html=1;rounded=0;exitX=0.5;exitY=1;exitDx=0;exitDy=0;entryX=0.918;entryY=0.006;entryDx=0;entryDy=0;entryPerimeter=0;" edge="1" parent="WIyWlLk6GJQsqaUBKTNV-1" source="egoAasq25twxmUCqWfy0-3" target="7Vs7owEC3NM674qJ7YM_-0">
          <mxGeometry relative="1" as="geometry">
            <mxPoint x="520" y="240" as="sourcePoint" />
            <mxPoint x="640" y="270" as="targetPoint" />
          </mxGeometry>
        </mxCell>
        <mxCell id="egoAasq25twxmUCqWfy0-5" value="*" style="resizable=0;html=1;align=left;verticalAlign=bottom;" connectable="0" vertex="1" parent="egoAasq25twxmUCqWfy0-4">
          <mxGeometry x="-1" relative="1" as="geometry">
            <mxPoint x="10" y="20" as="offset" />
          </mxGeometry>
        </mxCell>
        <mxCell id="egoAasq25twxmUCqWfy0-6" value="1" style="resizable=0;html=1;align=right;verticalAlign=bottom;" connectable="0" vertex="1" parent="egoAasq25twxmUCqWfy0-4">
          <mxGeometry x="1" relative="1" as="geometry">
            <mxPoint x="-10" as="offset" />
          </mxGeometry>
        </mxCell>
        <mxCell id="egoAasq25twxmUCqWfy0-7" value="OuterSubAccount(外部户子户)" style="swimlane;childLayout=stackLayout;horizontal=1;startSize=30;horizontalStack=0;rounded=1;fontSize=14;fontStyle=0;strokeWidth=2;resizeParent=0;resizeLast=1;shadow=0;dashed=0;align=center;" vertex="1" parent="WIyWlLk6GJQsqaUBKTNV-1">
          <mxGeometry x="1970" y="625" width="225" height="100" as="geometry" />
        </mxCell>
        <mxCell id="egoAasq25twxmUCqWfy0-8" value="+accountNo : 账户号&#xa;+balanceType : 余额类型&#xa;+availableBalance : 可用余额&#xa;+frozenBalance : 冻结余额" style="align=left;strokeColor=none;fillColor=none;spacingLeft=4;fontSize=12;verticalAlign=top;resizable=0;rotatable=0;part=1;dashed=1;" vertex="1" parent="egoAasq25twxmUCqWfy0-7">
          <mxGeometry y="30" width="225" height="70" as="geometry" />
        </mxCell>
        <mxCell id="egoAasq25twxmUCqWfy0-11" value="AccountTitle(科目)" style="swimlane;childLayout=stackLayout;horizontal=1;startSize=30;horizontalStack=0;rounded=1;fontSize=14;fontStyle=0;strokeWidth=2;resizeParent=0;resizeLast=1;shadow=0;dashed=0;align=center;" vertex="1" parent="WIyWlLk6GJQsqaUBKTNV-1">
          <mxGeometry x="1790" y="-120" width="200" height="140" as="geometry" />
        </mxCell>
        <mxCell id="egoAasq25twxmUCqWfy0-12" value="+code : 科目号&#xa;+name : 科目名&#xa;+level : 科目层级&#xa;+parentCode : 父科目&#xa;+part : 科目要素&#xa;+balanceDirection : 余额方向&#xa;+status : 状态，是否可用" style="align=left;strokeColor=none;fillColor=none;spacingLeft=4;fontSize=12;verticalAlign=top;resizable=0;rotatable=0;part=1;dashed=1;" vertex="1" parent="egoAasq25twxmUCqWfy0-11">
          <mxGeometry y="30" width="200" height="110" as="geometry" />
        </mxCell>
        <mxCell id="egoAasq25twxmUCqWfy0-14" value="" style="edgeStyle=entityRelationEdgeStyle;fontSize=12;html=1;endArrow=ERoneToMany;rounded=0;entryX=1;entryY=0.25;entryDx=0;entryDy=0;exitX=0.5;exitY=1;exitDx=0;exitDy=0;" edge="1" parent="WIyWlLk6GJQsqaUBKTNV-1" source="7Vs7owEC3NM674qJ7YM_-38" target="egoAasq25twxmUCqWfy0-8">
          <mxGeometry width="100" height="100" relative="1" as="geometry">
            <mxPoint x="2220" y="430" as="sourcePoint" />
            <mxPoint x="2320" y="330" as="targetPoint" />
          </mxGeometry>
        </mxCell>
        <mxCell id="egoAasq25twxmUCqWfy0-25" value="" style="edgeStyle=entityRelationEdgeStyle;fontSize=12;html=1;endArrow=ERoneToMany;rounded=0;exitX=0.5;exitY=1;exitDx=0;exitDy=0;entryX=0.535;entryY=-0.015;entryDx=0;entryDy=0;entryPerimeter=0;" edge="1" parent="WIyWlLk6GJQsqaUBKTNV-1" source="egoAasq25twxmUCqWfy0-12" target="7Vs7owEC3NM674qJ7YM_-24">
          <mxGeometry width="100" height="100" relative="1" as="geometry">
            <mxPoint x="2020" y="85.00999999999999" as="sourcePoint" />
            <mxPoint x="2140" y="110" as="targetPoint" />
          </mxGeometry>
        </mxCell>
        <mxCell id="egoAasq25twxmUCqWfy0-26" value="InnerAccount(内部户)" style="swimlane;childLayout=stackLayout;horizontal=1;startSize=30;horizontalStack=0;rounded=1;fontSize=14;fontStyle=0;strokeWidth=2;resizeParent=0;resizeLast=1;shadow=0;dashed=0;align=center;" vertex="1" parent="WIyWlLk6GJQsqaUBKTNV-1">
          <mxGeometry x="1654" y="320" width="225" height="90" as="geometry" />
        </mxCell>
        <mxCell id="egoAasq25twxmUCqWfy0-27" value="+balance : 余额" style="align=left;strokeColor=none;fillColor=none;spacingLeft=4;fontSize=12;verticalAlign=top;resizable=0;rotatable=0;part=1;dashed=1;" vertex="1" parent="egoAasq25twxmUCqWfy0-26">
          <mxGeometry y="30" width="225" height="60" as="geometry" />
        </mxCell>
        <mxCell id="egoAasq25twxmUCqWfy0-28" value="" style="edgeStyle=orthogonalEdgeStyle;rounded=0;orthogonalLoop=1;jettySize=auto;html=1;exitX=0;exitY=0.5;exitDx=0;exitDy=0;entryX=0.5;entryY=0;entryDx=0;entryDy=0;" edge="1" parent="WIyWlLk6GJQsqaUBKTNV-1" source="7Vs7owEC3NM674qJ7YM_-24" target="egoAasq25twxmUCqWfy0-26">
          <mxGeometry relative="1" as="geometry">
            <mxPoint x="1860" y="300" as="sourcePoint" />
            <mxPoint x="1990" y="370" as="targetPoint" />
          </mxGeometry>
        </mxCell>
        <mxCell id="egoAasq25twxmUCqWfy0-33" value="" style="edgeStyle=entityRelationEdgeStyle;fontSize=12;html=1;endArrow=ERoneToMany;rounded=0;entryX=0;entryY=0.25;entryDx=0;entryDy=0;exitX=0.5;exitY=1;exitDx=0;exitDy=0;" edge="1" parent="WIyWlLk6GJQsqaUBKTNV-1" source="7Vs7owEC3NM674qJ7YM_-38" target="egoAasq25twxmUCqWfy0-38">
          <mxGeometry width="100" height="100" relative="1" as="geometry">
            <mxPoint x="2272.5" y="430" as="sourcePoint" />
            <mxPoint x="2205" y="582.5" as="targetPoint" />
          </mxGeometry>
        </mxCell>
        <mxCell id="egoAasq25twxmUCqWfy0-37" value="OuterAccountDetail(外部户明细)" style="swimlane;childLayout=stackLayout;horizontal=1;startSize=30;horizontalStack=0;rounded=1;fontSize=14;fontStyle=0;strokeWidth=2;resizeParent=0;resizeLast=1;shadow=0;dashed=0;align=center;" vertex="1" parent="WIyWlLk6GJQsqaUBKTNV-1">
          <mxGeometry x="2375" y="520" width="225" height="210" as="geometry" />
        </mxCell>
        <mxCell id="egoAasq25twxmUCqWfy0-38" value="+detailId : 明细流水ID&#xa;+vocherNo : 账务凭证号&#xa;+accountingDate : 会计日&#xa;+accountNo : 账户号&#xa;+direction : 方向，1加，2减&#xa;+amount : 交易金额&#xa;+beforeAmount : 交易前金额&#xa;+afterAmount : 交易后金额&#xa;+otherAccountNo : 对手账号&#xa;+crdr : 借、贷标识&#xa;+productCode : 产品标识&#xa;+suiteNo : 套号" style="align=left;strokeColor=none;fillColor=none;spacingLeft=4;fontSize=12;verticalAlign=top;resizable=0;rotatable=0;part=1;dashed=1;" vertex="1" parent="egoAasq25twxmUCqWfy0-37">
          <mxGeometry y="30" width="225" height="180" as="geometry" />
        </mxCell>
        <mxCell id="egoAasq25twxmUCqWfy0-39" value="BalanceType(余额类型)" style="swimlane;childLayout=stackLayout;horizontal=1;startSize=30;horizontalStack=0;rounded=1;fontSize=14;fontStyle=0;strokeWidth=2;resizeParent=0;resizeLast=1;shadow=0;dashed=0;align=center;" vertex="1" parent="WIyWlLk6GJQsqaUBKTNV-1">
          <mxGeometry x="1790" y="460" width="225" height="100" as="geometry" />
        </mxCell>
        <mxCell id="egoAasq25twxmUCqWfy0-40" value="+code : 类型code&#xa;+name : 类型名称&#xa;+priority : 优先级" style="align=left;strokeColor=none;fillColor=none;spacingLeft=4;fontSize=12;verticalAlign=top;resizable=0;rotatable=0;part=1;dashed=1;" vertex="1" parent="egoAasq25twxmUCqWfy0-39">
          <mxGeometry y="30" width="225" height="70" as="geometry" />
        </mxCell>
        <mxCell id="egoAasq25twxmUCqWfy0-42" value="" style="edgeStyle=entityRelationEdgeStyle;fontSize=12;html=1;endArrow=ERoneToMany;rounded=0;entryX=0.5;entryY=0;entryDx=0;entryDy=0;exitX=1;exitY=0.25;exitDx=0;exitDy=0;" edge="1" parent="WIyWlLk6GJQsqaUBKTNV-1" source="egoAasq25twxmUCqWfy0-40" target="egoAasq25twxmUCqWfy0-7">
          <mxGeometry width="100" height="100" relative="1" as="geometry">
            <mxPoint x="2272.5" y="430" as="sourcePoint" />
            <mxPoint x="2205" y="682.5" as="targetPoint" />
          </mxGeometry>
        </mxCell>
      </root>
    </mxGraphModel>
  </diagram>
</mxfile>
